<svg id="Layer_2" data-name="Layer 2" xmlns="http://www.w3.org/2000/svg" viewBox="0 0 179.99 179.99"><defs><style>.cls-1{fill:#000000;}</style></defs><g id="Group_604" data-name="Group 604"><g id="Group_602" data-name="Group 602"><path id="Path_1005" data-name="Path 1005" class="cls-1" d="M148.86,132.66H137.09L98.51,95.3c1.14-1,2.14-1.93,3.07-2.78,1.14-1.07,2.07-2,2.85-2.85Z"/><path id="Path_1006" data-name="Path 1006" class="cls-1" d="M122.05,132.66H111.61L88.36,103c1.21-.79,2.28-1.57,3.36-2.38S93.92,99,95,98.2Z"/><path id="Path_1007" data-name="Path 1007" class="cls-1" d="M99.58,132.67H90.09L76.61,110.06c1.21-.64,2.38-1.28,3.57-2a9.75,9.75,0,0,0,1-.57l2.58-1.5Z"/><path id="Path_1008" data-name="Path 1008" class="cls-1" d="M80.68,132.66H71.76l-7.48-16.6c1.21-.5,2.42-1.07,3.71-1.72,1.2-.49,2.41-1.14,3.7-1.71Z"/><path id="Path_1009" data-name="Path 1009" class="cls-1" d="M62.71,132.66H54.35L51.64,121c.78-.29,2.13-.71,3.86-1.36,1.13-.43,2.41-.93,3.85-1.5Z"/><path id="Path_1010" data-name="Path 1010" class="cls-1" d="M89.59,60.36A32.17,32.17,0,0,0,34.2,92.8L45,114.55l3.32-1a10.15,10.15,0,0,1,1.5-.5c.85-.29,2.21-.79,3.85-1.43,1.14-.42,2.43-.95,3.85-1.5q1.61-.75,3.42-1.5c1.21-.56,2.43-1.06,3.8-1.71,1.13-.57,2.34-1.14,3.63-1.78s2.71-1.36,4.14-2.14c1.14-.57,2.37-1.29,3.56-1.93l1.07-.64c.85-.5,1.64-1,2.42-1.42,1.36-.86,2.64-1.65,3.8-2.43a37.62,37.62,0,0,0,3.35-2.37c1.22-.86,2.28-1.64,3.29-2.5,1-.71,1.84-1.42,2.63-2.14,1.14-1,2.21-1.92,3.07-2.71,1.21-1.14,2.14-2.07,2.93-2.84,1.27-1.36,2-2.21,2.07-2.29l1.89-2.42Zm-4.71,25c-1,.78-2.06,1.64-3.21,2.49s-2.21,1.5-3.35,2.29c-.95.64-1.92,1.28-2.92,1.85-.79.5-1.57,1-2.37,1.42-.44.22-.79.43-1.21.64-1.22.72-2.37,1.36-3.56,2S66.05,97.15,65,97.73c-1.29.56-2.5,1.21-3.65,1.78l-3.7,1.64c-.71.36-1.43.64-2.07.95-1.36.57-2.64,1.07-3.77,1.5s-1.93.78-2.72,1.07l-2.43-5L41.42,89.19a24,24,0,0,1,8.63-31A24.52,24.52,0,0,1,63,54.47,23.84,23.84,0,0,1,82.79,65l9.49,13.83a84.87,84.87,0,0,1-7.4,6.53Z"/></g></g></svg>